<svg id="svg" version="1.1" xmlns="http://www.w3.org/2000/svg" xmlns:xlink="http://www.w3.org/1999/xlink" width="400" height="400" viewBox="0, 0, 400,400"><g id="svgg"><path id="path0" d="M267.879 123.660 C 267.291 123.989,267.200 124.785,267.200 129.576 C 267.200 137.090,267.519 136.764,260.033 136.897 C 256.182 136.966,254.216 137.150,254.115 137.452 C 253.886 138.141,255.343 138.357,260.683 138.425 C 267.241 138.509,266.935 138.195,267.131 145.058 C 267.322 151.767,267.434 152.057,269.707 151.733 C 270.638 151.600,271.760 151.470,272.200 151.445 C 273.328 151.381,273.643 143.153,272.564 141.960 C 271.895 141.221,271.665 139.402,272.175 138.891 C 272.327 138.740,275.116 138.502,278.374 138.363 C 281.632 138.224,284.504 137.983,284.756 137.827 C 285.948 137.090,284.267 136.800,278.805 136.800 C 271.568 136.800,269.373 135.339,272.440 132.564 C 273.097 131.970,273.200 131.293,273.200 127.592 L 273.200 123.309 270.879 123.294 C 269.602 123.286,268.252 123.451,267.879 123.660 M197.874 130.298 C 196.962 131.209,188.979 131.698,186.725 130.980 C 185.224 130.502,184.400 130.799,184.400 131.818 C 184.400 132.498,183.139 133.509,182.000 133.744 C 181.450 133.857,180.536 134.047,179.969 134.165 C 179.402 134.284,178.456 134.827,177.868 135.372 C 177.279 135.918,176.177 136.481,175.418 136.623 C 174.621 136.773,173.783 137.272,173.433 137.806 C 173.100 138.315,172.268 138.853,171.584 139.004 C 170.900 139.154,169.769 139.773,169.070 140.380 C 168.372 140.986,167.395 141.695,166.900 141.955 C 166.405 142.215,166.000 142.698,166.000 143.028 C 166.000 143.357,165.378 143.994,164.618 144.443 C 163.857 144.891,163.131 145.587,163.004 145.989 C 162.876 146.390,162.314 147.177,161.754 147.737 C 161.194 148.297,160.694 148.990,160.643 149.278 C 160.394 150.690,159.880 151.587,158.984 152.173 C 158.309 152.616,158.000 153.187,158.000 153.991 C 158.000 154.733,157.601 155.562,156.913 156.250 C 156.316 156.848,155.786 157.531,155.736 157.768 C 154.988 161.310,154.546 162.225,153.301 162.800 C 152.126 163.342,152.030 163.515,152.301 164.600 C 152.637 165.947,152.671 169.095,152.413 175.000 C 152.024 183.930,152.684 191.938,153.895 192.980 C 154.837 193.791,154.977 194.211,154.988 196.255 C 154.999 198.414,155.095 198.662,156.200 199.385 C 157.808 200.436,157.987 200.747,157.994 202.510 C 157.999 203.764,158.176 204.087,159.036 204.414 C 159.608 204.631,160.270 205.332,160.514 205.978 C 160.757 206.622,161.369 207.369,161.873 207.639 C 162.378 207.909,163.017 208.641,163.293 209.265 C 163.569 209.889,164.009 210.400,164.270 210.400 C 164.532 210.400,165.130 210.940,165.600 211.600 C 166.070 212.260,166.718 212.800,167.041 212.800 C 167.363 212.800,167.987 213.411,168.428 214.157 C 168.868 214.903,169.562 215.601,169.969 215.708 C 170.376 215.814,170.957 216.419,171.260 217.051 C 171.584 217.727,172.138 218.209,172.605 218.223 C 174.383 218.273,175.842 218.871,176.210 219.700 C 176.450 220.240,177.114 220.680,177.937 220.845 C 178.672 220.993,179.847 221.670,180.547 222.349 C 181.696 223.462,182.059 223.581,184.224 223.550 C 188.325 223.493,189.961 224.568,189.629 227.105 C 189.537 227.804,190.698 228.183,191.328 227.660 C 193.726 225.669,205.664 225.593,206.321 227.564 C 206.753 228.858,209.600 228.021,209.600 226.600 C 209.600 224.738,210.754 223.609,212.700 223.569 C 213.525 223.553,214.560 223.472,215.000 223.390 C 215.465 223.304,216.301 223.691,217.000 224.318 C 217.660 224.910,217.993 225.152,217.740 224.856 C 216.547 223.465,218.321 220.800,220.439 220.800 C 221.691 220.800,222.220 220.537,223.255 219.400 C 223.966 218.618,224.913 218.000,225.400 218.000 C 225.929 218.000,226.442 217.627,226.704 217.050 C 227.028 216.339,227.577 216.034,228.884 215.838 C 230.332 215.621,230.754 215.347,231.353 214.235 C 231.750 213.498,232.508 212.697,233.038 212.456 C 233.567 212.214,234.000 211.820,234.000 211.580 C 234.000 210.962,234.883 210.154,235.919 209.826 C 236.403 209.672,236.822 209.378,236.850 209.173 C 236.878 208.968,236.945 208.620,237.000 208.400 C 237.055 208.180,237.123 207.730,237.150 207.400 C 237.178 207.070,237.562 206.438,238.005 205.995 C 238.448 205.552,239.099 204.470,239.450 203.591 C 239.877 202.525,240.408 201.913,241.045 201.753 C 241.835 201.555,242.000 201.259,242.000 200.046 C 242.000 198.211,242.952 196.800,244.190 196.800 C 246.127 196.800,246.479 196.426,245.596 195.305 C 243.709 192.905,244.886 188.499,247.461 188.322 C 249.046 188.214,249.674 185.985,248.488 184.678 C 247.356 183.428,247.263 174.051,248.358 171.498 C 249.443 168.968,249.136 168.178,247.143 168.372 C 245.732 168.509,244.800 166.500,244.800 163.320 C 244.800 160.539,244.726 160.286,243.652 159.382 C 243.020 158.851,242.386 157.832,242.244 157.119 C 242.101 156.406,241.448 155.333,240.792 154.734 C 239.934 153.950,239.598 153.275,239.594 152.323 C 239.587 150.802,239.291 150.249,238.285 149.878 C 237.892 149.733,237.264 149.080,236.890 148.428 C 236.516 147.775,235.799 147.054,235.297 146.826 C 234.795 146.597,234.218 145.973,234.015 145.439 C 233.812 144.905,233.295 144.357,232.866 144.221 C 232.437 144.085,231.994 143.622,231.882 143.192 C 231.769 142.762,231.231 142.240,230.686 142.033 C 230.140 141.825,229.315 141.123,228.851 140.472 C 228.388 139.821,227.569 139.179,227.031 139.044 C 226.493 138.909,225.939 138.439,225.800 138.000 C 225.661 137.561,225.109 137.111,224.573 137.001 C 224.038 136.890,223.139 136.704,222.575 136.586 C 221.922 136.450,221.365 135.932,221.041 135.161 C 220.555 134.007,220.409 133.946,217.948 133.857 C 215.657 133.774,215.214 133.620,214.042 132.500 C 212.744 131.260,212.652 131.237,209.060 131.289 C 204.567 131.355,200.884 130.905,199.822 130.160 C 198.807 129.449,198.716 129.456,197.874 130.298 M202.591 141.448 C 203.679 142.536,203.360 147.877,202.134 149.103 C 201.157 150.079,193.778 150.307,191.343 149.436 C 190.611 149.174,190.418 149.334,190.023 150.529 C 189.522 152.048,188.855 152.514,187.000 152.639 C 186.340 152.684,185.575 152.738,185.300 152.760 C 185.025 152.782,184.800 153.062,184.800 153.381 C 184.800 153.701,184.330 154.286,183.755 154.681 C 183.180 155.077,182.215 155.875,181.612 156.455 C 181.008 157.036,180.129 157.717,179.657 157.969 C 179.186 158.222,178.800 158.685,178.800 159.000 C 178.800 159.315,178.426 159.772,177.968 160.017 C 177.511 160.262,176.958 160.975,176.739 161.602 C 176.491 162.314,175.902 162.895,175.171 163.150 C 174.111 163.520,174.000 163.729,174.000 165.351 C 174.000 167.304,173.362 168.244,171.764 168.645 C 170.833 168.879,170.799 168.992,171.074 170.945 C 171.331 172.764,171.388 175.413,171.245 178.918 C 171.163 180.955,169.746 181.863,166.502 181.958 C 162.208 182.083,162.074 181.872,162.035 174.933 C 162.001 168.914,162.098 168.562,164.071 167.599 C 164.902 167.193,165.328 166.734,165.208 166.375 C 164.612 164.597,165.026 162.138,166.101 161.063 C 166.705 160.458,167.200 159.710,167.200 159.401 C 167.200 158.317,168.096 156.885,169.044 156.453 C 169.570 156.213,170.000 155.820,170.000 155.580 C 170.000 154.982,170.782 154.287,172.123 153.694 C 172.740 153.420,173.148 153.040,173.030 152.848 C 172.655 152.242,175.197 149.160,176.424 148.732 C 177.071 148.506,177.600 148.166,177.600 147.976 C 177.600 147.275,179.382 146.000,180.363 146.000 C 180.923 146.000,181.737 145.584,182.187 145.068 C 183.328 143.759,185.367 143.111,186.590 143.668 C 187.762 144.202,188.800 143.862,188.800 142.944 C 188.800 140.789,200.647 139.504,202.591 141.448 M216.100 144.305 C 216.485 144.646,216.800 145.250,216.800 145.647 C 216.800 146.248,217.119 146.364,218.674 146.333 C 221.345 146.280,222.378 147.494,221.265 149.380 C 220.533 150.621,220.532 150.676,221.257 151.571 C 223.891 154.824,217.260 156.923,214.054 153.852 C 213.450 153.273,212.591 152.800,212.144 152.800 C 210.957 152.800,207.600 149.349,207.600 148.129 C 207.600 144.904,213.682 142.168,216.100 144.305 M138.825 241.506 C 138.370 242.504,137.344 243.029,135.164 243.381 C 134.374 243.508,133.305 244.063,132.787 244.614 C 132.251 245.185,131.192 245.720,130.323 245.859 C 129.245 246.031,128.800 246.303,128.800 246.789 C 128.800 247.532,127.821 248.529,126.700 248.927 C 126.315 249.063,126.000 249.446,126.000 249.777 C 126.000 250.108,125.505 250.637,124.900 250.951 C 124.295 251.265,123.399 252.066,122.910 252.732 C 122.420 253.397,121.610 254.000,121.110 254.071 C 120.162 254.205,120.114 254.500,120.625 257.045 C 120.838 258.110,120.667 258.490,119.437 259.685 C 118.078 261.005,118.000 261.222,118.000 263.682 C 118.000 266.384,116.655 268.852,115.554 268.171 C 115.310 268.021,114.953 268.146,114.761 268.449 C 114.487 268.881,114.411 268.887,114.406 268.476 C 114.403 268.188,114.220 268.064,114.000 268.200 C 113.459 268.534,113.495 270.493,114.066 271.874 C 114.667 273.324,114.691 273.417,114.750 274.571 C 114.874 276.977,108.190 276.800,198.805 276.800 C 244.316 276.800,281.643 276.653,281.754 276.474 C 281.865 276.295,281.986 274.000,282.022 271.374 C 282.059 268.748,282.250 266.294,282.448 265.920 C 282.734 265.378,282.527 265.108,281.428 264.586 C 280.068 263.941,279.924 263.660,279.431 260.682 C 279.330 260.067,278.696 259.050,278.023 258.422 C 277.094 257.554,276.800 256.930,276.800 255.830 C 276.800 254.691,276.605 254.306,275.892 254.035 C 275.392 253.845,274.742 253.239,274.448 252.689 C 274.153 252.139,273.479 251.491,272.950 251.250 C 272.421 251.009,271.798 250.394,271.565 249.883 C 271.332 249.371,270.630 248.760,270.005 248.524 C 269.314 248.263,268.816 247.747,268.734 247.208 C 268.641 246.589,268.135 246.161,267.062 245.794 C 266.216 245.505,265.136 244.912,264.662 244.476 C 264.188 244.040,262.755 243.453,261.477 243.173 C 259.742 242.792,259.028 242.423,258.659 241.718 L 258.164 240.774 198.701 240.687 L 139.237 240.600 138.825 241.506 " stroke="none" fill="#8c8c8c" fill-rule="evenodd"></path><path id="path1" d="M265.416 120.201 C 265.591 121.568,265.563 121.600,264.298 121.501 L 263.000 121.400 262.888 126.700 L 262.777 132.000 257.388 132.000 L 252.000 132.000 252.000 133.375 C 252.000 134.633,251.890 134.760,250.701 134.875 L 249.402 135.000 249.432 138.498 C 249.469 142.712,249.282 142.496,253.086 142.711 C 255.918 142.871,256.124 142.831,255.620 142.224 C 255.184 141.699,255.001 141.670,254.736 142.081 C 254.542 142.381,254.506 142.051,254.651 141.300 C 254.865 140.180,254.788 140.000,254.093 140.000 C 253.158 140.000,252.800 139.278,252.800 137.391 C 252.800 135.580,252.812 135.576,259.439 135.251 C 266.448 134.906,265.986 135.393,265.994 128.349 C 266.001 121.780,265.950 121.858,270.190 122.067 L 273.200 122.215 273.200 120.508 L 273.200 118.800 269.218 118.800 L 265.237 118.800 265.416 120.201 M183.067 127.067 C 181.685 128.448,182.825 129.519,185.975 129.798 C 188.729 130.042,192.400 129.809,192.400 129.391 C 192.400 129.315,192.221 128.780,192.001 128.203 C 191.736 127.506,191.736 127.237,192.001 127.401 C 192.221 127.536,192.400 127.457,192.400 127.224 C 192.400 126.756,183.527 126.606,183.067 127.067 M205.200 127.187 C 205.200 127.414,205.355 127.600,205.545 127.600 C 205.734 127.600,205.808 128.024,205.709 128.543 C 205.489 129.692,206.615 130.003,210.950 129.994 C 214.328 129.987,214.909 129.705,214.732 128.157 L 214.600 127.000 209.900 126.887 C 206.864 126.815,205.200 126.921,205.200 127.187 M175.906 129.658 C 175.649 129.817,175.295 129.858,175.119 129.750 C 174.944 129.642,174.800 130.103,174.800 130.776 C 174.800 131.912,174.698 132.000,173.376 132.000 C 171.977 132.000,171.954 132.026,172.076 133.486 C 172.284 135.976,174.907 136.184,176.054 133.800 C 176.566 132.736,176.804 132.614,178.152 132.722 C 179.576 132.836,181.963 131.829,181.460 131.327 C 181.345 131.212,181.401 130.724,181.584 130.243 C 181.927 129.339,177.209 128.853,175.906 129.658 M216.650 129.483 C 215.766 130.368,217.177 132.209,218.814 132.305 C 221.810 132.482,222.336 132.707,222.474 133.865 C 222.557 134.570,222.870 134.966,223.400 135.041 C 226.320 135.452,226.738 135.647,227.134 136.782 C 227.430 137.633,227.838 137.975,228.666 138.070 C 229.431 138.158,229.963 138.554,230.319 139.300 C 231.218 141.185,233.200 140.877,233.200 138.852 C 233.200 137.369,233.151 137.311,232.000 137.445 C 230.835 137.580,230.469 136.894,230.753 135.100 C 230.779 134.935,230.181 134.800,229.425 134.800 C 228.167 134.800,228.040 134.690,227.925 133.500 C 227.800 132.203,227.793 132.199,225.200 132.000 C 222.815 131.817,222.610 131.728,222.719 130.935 C 222.785 130.460,222.605 129.922,222.319 129.740 C 221.813 129.418,216.937 129.197,216.650 129.483 M273.052 133.241 C 272.913 133.933,272.800 134.657,272.800 134.850 C 272.800 135.042,275.568 135.200,278.951 135.200 C 285.781 135.200,285.982 135.272,286.075 137.755 C 286.147 139.666,285.971 139.839,283.837 139.950 C 283.083 139.989,282.920 140.172,283.083 140.795 C 283.215 141.299,283.055 141.681,282.645 141.838 C 281.389 142.320,282.025 142.800,283.920 142.800 C 286.042 142.800,286.800 142.305,286.800 140.920 C 286.800 140.164,287.014 140.000,288.000 140.000 L 289.200 140.000 289.200 137.400 L 289.200 134.800 288.000 134.800 C 287.083 134.800,286.788 134.611,286.750 134.000 C 286.723 133.560,286.678 132.975,286.650 132.700 C 286.613 132.327,284.912 132.172,279.952 132.091 L 273.304 131.981 273.052 133.241 M166.727 136.079 C 166.619 137.203,166.451 137.393,165.600 137.353 C 164.473 137.301,164.015 137.795,164.006 139.075 C 164.001 139.767,163.730 139.975,162.700 140.075 C 161.861 140.156,161.440 140.392,161.514 140.741 C 161.771 141.966,161.147 142.800,159.973 142.800 C 158.895 142.800,158.800 142.916,158.800 144.224 C 158.800 145.122,158.644 145.551,158.377 145.386 C 156.959 144.510,156.000 145.577,156.000 148.031 C 156.000 149.566,156.148 150.356,156.407 150.196 C 156.630 150.058,156.709 149.777,156.583 149.572 C 156.456 149.368,156.768 149.197,157.276 149.194 C 158.547 149.185,159.092 148.768,159.392 147.575 C 159.550 146.943,160.093 146.389,160.824 146.114 C 161.615 145.815,162.000 145.393,162.000 144.822 C 162.000 144.356,162.315 143.878,162.700 143.759 C 164.091 143.329,164.586 142.907,164.808 141.964 C 164.933 141.436,165.387 140.939,165.818 140.859 C 166.942 140.650,167.600 140.016,167.600 139.141 C 167.600 138.613,167.972 138.306,168.814 138.137 C 171.449 137.610,171.380 135.050,168.727 134.879 C 166.872 134.760,166.853 134.771,166.727 136.079 M233.804 140.407 C 233.942 140.630,234.223 140.709,234.429 140.582 C 234.634 140.455,234.736 140.767,234.655 141.276 C 234.574 141.784,234.843 142.678,235.254 143.262 C 235.664 143.846,236.000 144.598,236.000 144.934 C 236.000 145.270,236.405 145.602,236.900 145.672 C 237.511 145.759,237.844 146.121,237.938 146.800 C 238.116 148.082,238.713 148.800,239.601 148.800 C 240.101 148.800,240.436 149.321,240.758 150.600 C 241.099 151.954,241.403 152.400,241.982 152.400 C 242.406 152.400,242.866 152.583,243.004 152.807 C 243.558 153.703,244.000 152.625,244.000 150.376 L 244.000 148.000 242.600 148.000 C 241.280 148.000,241.200 147.924,241.200 146.664 C 241.200 145.431,241.108 145.334,240.000 145.400 C 238.843 145.469,238.800 145.411,238.800 143.762 C 238.800 140.573,238.341 140.000,235.786 140.000 C 234.375 140.000,233.645 140.150,233.804 140.407 M263.491 141.870 C 262.841 142.046,262.791 142.640,262.891 148.931 L 263.000 155.800 264.970 155.925 C 266.609 156.029,266.862 155.957,266.480 155.496 C 266.186 155.142,265.981 152.573,265.910 148.371 C 265.791 141.253,265.789 141.249,263.491 141.870 M191.900 142.443 C 191.120 142.743,190.800 143.148,190.800 143.833 C 190.800 144.933,190.729 144.956,187.220 144.981 L 184.640 145.000 184.281 146.499 L 183.921 147.998 181.797 147.748 C 179.738 147.506,179.654 147.535,179.050 148.702 C 178.704 149.372,177.978 150.019,177.414 150.161 C 176.666 150.348,176.400 150.678,176.400 151.418 C 176.400 152.110,176.100 152.534,175.431 152.788 C 174.871 153.001,174.406 153.545,174.331 154.076 C 174.236 154.743,173.871 155.050,173.000 155.197 C 172.130 155.344,171.645 155.753,171.236 156.681 C 170.904 157.435,170.329 158.010,169.836 158.081 C 168.754 158.235,168.390 160.668,169.392 161.052 C 169.982 161.279,169.982 161.357,169.391 162.010 C 168.966 162.479,168.892 162.810,169.174 162.984 C 169.408 163.129,169.589 163.552,169.575 163.924 C 169.556 164.414,169.450 164.352,169.188 163.700 C 168.110 161.019,166.200 162.871,166.200 166.597 C 166.200 169.256,166.153 169.397,165.256 169.445 C 163.982 169.513,163.628 170.200,163.528 172.800 C 163.482 174.010,163.422 175.540,163.396 176.200 C 163.312 178.297,164.022 180.400,164.816 180.400 C 165.211 180.400,165.810 180.506,166.147 180.635 C 166.519 180.778,167.222 180.396,167.940 179.662 C 168.589 178.997,169.220 178.553,169.341 178.674 C 169.859 179.193,170.073 176.455,169.877 171.799 L 169.666 166.800 170.790 166.800 C 172.038 166.800,172.213 166.518,172.610 163.874 C 172.849 162.278,173.019 162.029,173.942 161.923 C 174.735 161.831,175.027 161.549,175.108 160.800 C 175.444 157.681,175.622 157.271,176.812 156.856 C 177.836 156.499,178.258 155.958,177.900 155.461 C 177.517 154.931,179.078 154.135,180.661 154.053 C 182.916 153.936,183.200 153.793,183.200 152.768 C 183.200 151.907,184.181 151.384,186.500 151.007 C 187.853 150.788,188.000 150.644,188.000 149.542 L 188.000 148.319 193.001 148.608 C 197.939 148.893,200.743 148.479,200.170 147.551 C 200.048 147.355,200.276 147.074,200.675 146.926 C 201.988 146.441,202.498 144.207,201.615 142.811 C 201.152 142.079,193.589 141.793,191.900 142.443 M211.026 146.200 C 210.704 146.970,210.162 147.600,209.820 147.600 C 208.848 147.600,209.094 148.380,210.200 148.800 C 210.787 149.023,211.200 149.497,211.200 149.947 C 211.200 150.873,211.944 151.200,214.053 151.200 C 215.494 151.200,215.696 151.331,216.235 152.621 C 217.085 154.656,220.660 154.638,220.514 152.600 C 220.466 151.940,220.106 151.130,219.714 150.800 C 219.321 150.470,218.936 149.750,218.859 149.200 C 218.689 147.996,218.167 147.614,216.680 147.606 C 215.780 147.601,215.444 147.324,214.974 146.200 C 214.465 144.981,214.210 144.800,213.000 144.800 C 211.790 144.800,211.535 144.981,211.026 146.200 M197.900 145.487 C 197.295 145.578,196.305 145.578,195.700 145.487 C 195.095 145.395,195.590 145.320,196.800 145.320 C 198.010 145.320,198.505 145.395,197.900 145.487 M153.563 150.900 C 153.388 151.369,153.397 155.143,153.572 154.908 C 153.697 154.738,154.250 154.613,154.800 154.629 C 156.569 154.681,157.296 153.358,156.557 151.433 C 156.359 150.917,153.730 150.449,153.563 150.900 M243.632 153.728 C 242.325 155.035,243.359 156.982,245.519 157.283 L 246.837 157.467 246.719 155.444 C 246.596 153.349,244.935 152.425,243.632 153.728 M270.836 153.900 C 270.579 154.175,270.539 154.400,270.747 154.400 C 270.955 154.400,271.041 154.721,270.939 155.113 C 270.793 155.670,271.020 155.847,271.976 155.919 C 273.120 156.007,273.200 155.924,273.200 154.649 C 273.200 153.185,271.891 152.771,270.836 153.900 M150.800 158.165 C 150.800 160.011,150.903 160.309,151.500 160.195 C 151.885 160.122,152.503 160.047,152.873 160.031 C 154.838 159.941,154.149 156.000,152.168 156.000 L 150.800 156.000 150.800 158.165 M246.243 159.985 C 245.623 163.732,246.172 165.366,248.100 165.509 L 249.200 165.591 249.200 162.239 L 249.200 158.888 247.839 158.729 C 246.551 158.578,246.465 158.646,246.243 159.985 M149.200 161.557 C 148.206 161.833,148.199 161.867,148.099 167.017 C 148.043 169.868,148.133 172.003,148.299 171.762 C 148.464 171.520,149.092 171.203,149.694 171.055 C 151.328 170.656,151.662 168.787,151.008 163.700 C 150.831 162.325,150.577 161.218,150.443 161.240 C 150.309 161.262,149.750 161.405,149.200 161.557 M249.056 171.665 C 248.731 174.776,248.722 183.731,249.043 184.567 C 249.198 184.972,249.774 185.200,250.643 185.200 L 252.000 185.200 252.000 177.624 C 252.000 173.457,251.865 169.971,251.700 169.879 C 249.819 168.824,249.318 169.162,249.056 171.665 M148.006 188.300 L 148.000 193.200 149.357 193.200 C 151.032 193.200,151.212 192.788,151.160 189.067 C 151.105 185.122,150.795 184.166,149.623 184.334 C 149.110 184.408,148.537 184.228,148.351 183.934 C 148.155 183.625,148.010 185.467,148.006 188.300 M247.731 190.287 C 245.307 190.591,245.483 195.685,247.926 195.925 L 249.200 196.051 249.200 193.025 C 249.200 191.361,249.155 190.029,249.100 190.064 C 249.045 190.099,248.429 190.200,247.731 190.287 M150.806 197.875 L 150.800 201.149 152.100 201.275 C 153.322 201.393,153.402 201.496,153.435 203.000 C 153.504 206.224,153.542 206.324,154.800 206.600 C 155.799 206.819,156.000 207.059,156.000 208.032 C 156.000 209.100,156.120 209.200,157.400 209.200 C 158.733 209.200,158.800 209.267,158.800 210.600 C 158.800 211.957,158.848 212.000,160.334 212.000 C 162.287 212.000,162.708 209.250,160.822 208.805 C 160.162 208.649,159.743 208.184,159.533 207.373 C 159.301 206.478,158.887 206.073,157.911 205.786 C 156.672 205.421,156.593 205.286,156.480 203.327 C 156.368 201.395,156.280 201.237,155.180 200.996 C 154.044 200.746,154.000 200.653,153.994 198.468 C 153.986 195.712,153.623 195.012,152.400 195.400 C 151.814 195.586,151.380 195.496,151.156 195.143 C 150.948 194.814,150.810 195.891,150.806 197.875 M246.477 197.895 C 246.435 198.168,246.085 198.364,245.700 198.332 C 243.708 198.165,243.600 198.292,243.600 200.800 C 243.600 203.180,243.590 203.200,242.443 203.200 C 241.204 203.200,240.804 203.766,240.795 205.533 C 240.785 207.392,240.353 208.325,239.389 208.567 C 238.740 208.730,238.414 209.139,238.326 209.899 C 238.226 210.767,237.949 211.038,237.000 211.198 C 236.125 211.345,235.645 211.752,235.228 212.700 C 234.824 213.618,234.388 214.000,233.746 214.000 C 233.028 214.000,232.782 214.287,232.582 215.357 C 232.376 216.451,232.101 216.760,231.163 216.947 C 230.138 217.152,230.000 217.351,230.000 218.614 C 230.000 220.733,232.920 220.627,233.125 218.500 C 233.240 217.310,233.367 217.200,234.625 217.200 C 235.886 217.200,236.000 217.101,236.000 216.000 C 236.000 215.141,236.199 214.787,236.700 214.754 C 237.085 214.728,237.670 214.683,238.000 214.654 C 238.330 214.624,238.624 214.330,238.654 214.000 C 238.683 213.670,238.728 213.097,238.754 212.727 C 238.783 212.304,239.210 212.006,239.900 211.927 C 240.812 211.822,241.021 211.582,241.124 210.524 C 241.231 209.412,241.412 209.231,242.524 209.124 C 243.795 209.001,243.800 208.990,243.919 206.500 C 244.031 204.156,244.098 204.000,245.005 204.000 C 246.367 204.000,246.861 202.799,246.696 199.891 C 246.618 198.521,246.519 197.623,246.477 197.895 M161.375 213.928 C 161.437 214.361,161.886 214.626,162.636 214.672 C 163.276 214.711,163.485 214.653,163.100 214.542 C 162.715 214.432,162.400 214.194,162.400 214.013 C 162.400 213.833,162.148 213.589,161.839 213.470 C 161.479 213.332,161.313 213.495,161.375 213.928 M164.000 215.800 C 164.000 217.133,164.067 217.200,165.400 217.200 C 166.733 217.200,166.800 217.267,166.800 218.600 C 166.800 219.939,166.863 220.000,168.229 220.000 C 169.478 220.000,169.643 220.113,169.541 220.900 C 169.342 222.437,169.893 222.800,172.424 222.800 C 174.797 222.800,174.800 222.801,174.800 224.000 C 174.800 225.172,174.846 225.200,176.787 225.200 C 178.193 225.200,178.730 225.054,178.621 224.700 C 178.536 224.425,178.353 223.683,178.214 223.051 C 177.966 221.927,177.917 221.908,175.980 222.165 C 173.921 222.438,173.819 222.356,173.895 220.487 C 173.906 220.205,173.112 219.759,172.130 219.497 C 170.661 219.104,170.304 218.822,170.122 217.910 C 169.971 217.154,169.652 216.800,169.124 216.800 C 167.893 216.800,166.800 216.041,166.800 215.186 C 166.800 214.554,166.525 214.400,165.400 214.400 C 164.067 214.400,164.000 214.467,164.000 215.800 M224.909 220.080 C 224.676 220.366,224.418 220.960,224.334 221.400 C 224.206 222.072,223.864 222.200,222.191 222.200 C 220.052 222.200,219.057 222.594,219.325 223.337 C 219.417 223.591,219.326 224.123,219.123 224.517 C 218.781 225.182,218.984 225.226,221.877 225.117 C 224.953 225.002,225.002 224.984,225.127 223.900 C 225.238 222.934,225.423 222.800,226.651 222.800 C 228.021 222.800,228.046 222.771,227.924 221.300 C 227.790 219.677,225.868 218.899,224.909 220.080 M180.468 225.150 C 180.166 225.341,179.993 225.986,180.068 226.643 L 180.200 227.800 183.500 227.916 L 186.800 228.032 186.800 226.659 C 186.800 225.776,186.574 225.199,186.167 225.043 C 185.229 224.683,181.082 224.760,180.468 225.150 M211.777 225.316 C 211.082 227.128,211.791 227.796,214.539 227.918 L 217.200 228.037 217.200 226.661 C 217.200 225.052,216.761 224.800,213.955 224.800 C 212.708 224.800,211.902 224.991,211.777 225.316 M191.900 227.887 C 190.431 228.109,190.274 230.187,191.700 230.530 C 193.556 230.977,205.670 230.840,206.242 230.366 C 207.299 229.488,206.924 228.125,205.550 227.850 C 204.210 227.582,193.725 227.610,191.900 227.887 M137.431 237.017 C 137.076 238.432,137.307 238.650,139.489 238.957 C 142.312 239.354,259.321 239.239,259.721 238.839 C 259.909 238.651,260.003 237.981,259.931 237.349 L 259.800 236.200 198.744 236.099 L 137.687 235.997 137.431 237.017 M132.000 240.157 C 132.000 241.613,132.497 242.004,134.333 241.994 C 135.223 241.989,137.158 241.225,136.328 241.206 C 136.178 241.203,136.211 240.660,136.400 240.000 L 136.744 238.800 134.372 238.800 L 132.000 238.800 132.000 240.157 M261.288 240.002 C 261.363 242.638,264.908 242.914,265.124 240.300 L 265.248 238.800 263.251 238.800 C 261.290 238.800,261.254 238.822,261.288 240.002 M126.967 241.567 C 126.875 241.658,126.800 242.243,126.800 242.867 C 126.800 243.895,126.671 244.000,125.400 244.000 C 124.067 244.000,124.000 244.067,124.000 245.400 C 124.000 246.722,123.925 246.800,122.655 246.800 C 121.371 246.800,121.317 246.860,121.456 248.119 C 121.594 249.374,121.537 249.437,120.301 249.419 C 119.121 249.402,118.988 249.521,118.875 250.700 C 118.782 251.657,118.553 252.000,118.003 252.000 C 116.650 252.000,116.000 253.112,116.000 255.429 C 116.000 257.070,115.854 257.612,115.400 257.650 C 115.070 257.678,114.592 257.723,114.338 257.750 C 113.746 257.814,113.589 258.666,113.445 262.604 L 113.327 265.809 114.845 265.664 C 117.293 265.431,117.541 260.078,115.110 259.954 C 114.472 259.921,114.402 259.854,114.875 259.729 C 115.247 259.631,115.610 259.247,115.682 258.875 C 115.778 258.376,116.228 258.200,117.406 258.200 L 119.000 258.200 119.056 256.200 C 119.086 255.100,119.131 253.896,119.156 253.525 C 119.186 253.069,119.620 252.810,120.498 252.725 C 121.589 252.620,121.829 252.409,122.002 251.403 C 122.165 250.452,122.452 250.164,123.403 249.999 C 124.062 249.885,124.573 249.614,124.539 249.396 C 124.424 248.642,125.253 247.560,126.231 247.188 C 126.772 246.983,127.377 246.386,127.576 245.863 C 127.809 245.250,128.374 244.825,129.169 244.666 C 130.400 244.420,131.128 241.691,130.000 241.550 C 128.881 241.410,127.113 241.420,126.967 241.567 M266.300 241.497 C 266.575 241.590,266.800 242.089,266.800 242.605 C 266.800 243.747,267.779 244.800,268.841 244.800 C 269.272 244.800,269.722 245.115,269.841 245.500 C 270.270 246.887,270.692 247.386,271.623 247.605 C 272.203 247.742,272.660 248.212,272.801 248.815 C 272.963 249.507,273.346 249.837,274.089 249.924 C 274.891 250.018,275.210 250.333,275.405 251.224 C 275.578 252.010,275.977 252.479,276.605 252.637 C 277.272 252.804,277.701 253.356,278.074 254.523 C 278.506 255.879,278.821 256.218,279.837 256.423 L 281.073 256.673 281.158 254.337 L 281.242 252.000 280.046 252.000 C 278.990 252.000,278.836 251.849,278.725 250.700 C 278.612 249.521,278.479 249.402,277.300 249.419 C 276.092 249.437,276.000 249.345,276.000 248.119 C 276.000 246.878,275.917 246.800,274.600 246.800 C 273.267 246.800,273.200 246.733,273.200 245.400 C 273.200 244.111,273.105 244.000,272.000 244.000 C 271.083 244.000,270.788 243.811,270.750 243.200 C 270.723 242.760,270.678 242.175,270.650 241.901 C 270.617 241.568,269.802 241.390,268.200 241.365 C 266.880 241.345,266.025 241.404,266.300 241.497 M281.019 257.515 C 279.855 258.678,281.082 261.993,282.755 262.204 L 284.037 262.367 283.919 259.931 C 283.804 257.582,282.248 256.285,281.019 257.515 M283.739 263.298 C 283.570 263.572,283.460 266.677,283.495 270.198 C 283.545 275.257,283.434 276.790,282.966 277.506 L 282.374 278.411 198.420 278.306 C 152.246 278.247,114.365 278.099,114.241 277.975 C 114.118 277.851,113.896 276.186,113.749 274.275 L 113.482 270.800 112.127 270.800 L 110.771 270.800 110.886 274.700 C 110.977 277.820,111.120 278.611,111.600 278.654 C 111.930 278.683,112.502 278.728,112.871 278.754 C 113.376 278.789,113.504 279.096,113.390 280.000 L 113.238 281.200 199.776 281.200 C 280.277 281.200,286.332 281.153,286.571 280.531 C 286.878 279.731,286.844 264.987,286.532 263.700 C 286.287 262.690,284.293 262.403,283.739 263.298 " stroke="none" fill="#717171" fill-rule="evenodd"></path><path id="path2" d="M269.811 122.720 C 266.312 122.871,266.413 122.672,266.406 129.420 C 266.398 136.418,266.799 136.000,260.094 136.000 C 254.755 136.000,253.200 136.317,253.200 137.405 C 253.200 138.684,255.054 139.254,260.179 139.553 C 266.497 139.922,266.152 139.531,266.412 146.612 C 266.529 149.787,266.799 152.555,267.012 152.764 C 267.541 153.282,273.200 152.367,273.200 151.764 C 273.200 151.319,272.352 151.325,269.312 151.793 C 267.499 152.073,267.315 151.505,267.131 145.058 C 266.935 138.195,267.241 138.509,260.683 138.425 C 255.343 138.357,253.886 138.141,254.115 137.452 C 254.216 137.150,256.182 136.966,260.033 136.897 C 267.519 136.764,267.200 137.091,267.200 129.570 C 267.200 123.237,267.182 123.270,270.600 123.303 C 271.700 123.313,272.660 123.189,272.733 123.027 C 272.929 122.597,272.855 122.589,269.811 122.720 M197.143 127.300 C 197.112 127.575,197.067 128.250,197.043 128.800 C 196.982 130.216,192.678 130.744,184.800 130.301 C 183.120 130.207,182.992 130.271,182.877 131.261 C 182.737 132.475,181.501 133.127,179.008 133.303 C 177.797 133.388,177.303 133.642,176.944 134.362 C 176.337 135.579,175.671 135.986,174.271 135.994 C 173.147 136.000,171.825 136.892,172.275 137.341 C 172.572 137.639,170.208 138.595,168.743 138.769 C 168.602 138.786,168.380 139.227,168.248 139.749 C 168.112 140.291,167.510 140.906,166.843 141.182 C 166.201 141.448,165.586 142.009,165.476 142.429 C 165.367 142.849,164.723 143.510,164.047 143.897 C 163.370 144.283,162.618 145.078,162.376 145.662 C 162.133 146.246,161.603 146.810,161.199 146.916 C 160.794 147.022,160.062 147.894,159.573 148.853 C 159.084 149.812,158.446 150.778,158.157 150.999 C 157.867 151.219,157.529 151.994,157.406 152.720 C 157.028 154.941,156.392 155.600,154.627 155.600 C 153.296 155.600,153.146 155.679,153.672 156.100 C 155.117 157.255,154.432 161.600,152.806 161.600 C 151.408 161.600,151.031 162.628,151.584 164.932 C 152.071 166.963,152.019 168.520,151.310 173.200 C 150.868 176.114,150.623 176.465,149.363 175.986 C 148.675 175.724,148.436 175.735,148.612 176.019 C 148.753 176.248,148.688 176.653,148.468 176.919 C 147.955 177.536,148.694 178.546,149.800 178.740 C 150.888 178.930,151.038 179.261,151.432 182.335 C 151.959 186.443,151.885 192.275,151.300 192.860 C 150.477 193.683,150.723 194.000,152.186 194.000 C 153.904 194.000,154.400 194.803,154.400 197.586 C 154.400 199.167,154.557 199.681,155.100 199.873 C 156.717 200.447,157.180 201.233,156.939 202.994 C 156.720 204.588,156.772 204.706,157.802 204.965 C 159.102 205.291,159.793 205.918,160.174 207.119 C 160.328 207.603,160.684 208.000,160.965 208.000 C 161.728 208.000,162.800 209.346,162.800 210.305 C 162.800 210.803,163.136 211.253,163.623 211.407 C 164.076 211.551,164.601 212.078,164.792 212.578 C 165.006 213.142,165.593 213.579,166.337 213.727 C 167.052 213.870,167.639 214.292,167.791 214.773 C 167.932 215.216,168.530 215.810,169.120 216.093 C 169.710 216.376,170.422 217.085,170.702 217.669 C 171.081 218.461,171.618 218.800,172.808 219.001 C 173.686 219.150,174.628 219.591,174.902 219.981 C 175.176 220.372,176.300 221.121,177.400 221.646 C 179.125 222.469,179.417 222.779,179.525 223.900 C 179.646 225.150,180.117 225.581,180.567 224.853 C 180.686 224.662,181.859 224.383,183.176 224.235 C 186.583 223.849,188.419 224.882,188.026 226.963 C 187.949 227.375,188.781 227.985,189.433 227.994 C 189.671 227.997,189.821 227.595,189.766 227.100 C 189.712 226.605,189.652 225.876,189.633 225.480 C 189.584 224.421,187.032 223.511,184.224 223.550 C 182.059 223.581,181.696 223.462,180.547 222.349 C 179.847 221.670,178.672 220.993,177.937 220.845 C 177.114 220.680,176.450 220.240,176.210 219.700 C 175.842 218.871,174.383 218.273,172.605 218.223 C 172.138 218.209,171.584 217.727,171.260 217.051 C 170.957 216.419,170.376 215.814,169.969 215.708 C 169.562 215.601,168.868 214.903,168.428 214.157 C 167.987 213.411,167.363 212.800,167.041 212.800 C 166.718 212.800,166.070 212.260,165.600 211.600 C 165.130 210.940,164.532 210.400,164.270 210.400 C 164.009 210.400,163.569 209.889,163.293 209.265 C 163.017 208.641,162.378 207.909,161.873 207.639 C 161.369 207.369,160.757 206.622,160.514 205.978 C 160.270 205.332,159.608 204.631,159.036 204.414 C 158.176 204.087,157.999 203.764,157.994 202.510 C 157.987 200.747,157.808 200.436,156.200 199.385 C 155.095 198.662,154.999 198.414,154.988 196.255 C 154.977 194.211,154.837 193.791,153.895 192.980 C 152.684 191.938,152.024 183.930,152.413 175.000 C 152.671 169.095,152.637 165.947,152.301 164.600 C 152.030 163.515,152.126 163.342,153.301 162.800 C 154.546 162.225,154.988 161.310,155.736 157.768 C 155.786 157.531,156.316 156.848,156.913 156.250 C 157.601 155.562,158.000 154.733,158.000 153.991 C 158.000 153.187,158.309 152.616,158.984 152.173 C 159.880 151.587,160.394 150.690,160.643 149.278 C 160.694 148.990,161.194 148.297,161.754 147.737 C 162.314 147.177,162.876 146.390,163.004 145.989 C 163.131 145.587,163.857 144.891,164.618 144.443 C 165.378 143.994,166.000 143.357,166.000 143.028 C 166.000 142.698,166.405 142.215,166.900 141.955 C 167.395 141.695,168.372 140.986,169.070 140.380 C 169.769 139.773,170.900 139.154,171.584 139.004 C 172.268 138.853,173.100 138.315,173.433 137.806 C 173.783 137.272,174.621 136.773,175.418 136.623 C 176.177 136.481,177.279 135.918,177.868 135.372 C 178.456 134.827,179.357 134.295,179.869 134.190 C 180.381 134.086,181.295 133.896,181.900 133.769 C 183.127 133.511,184.400 132.518,184.400 131.818 C 184.400 130.799,185.224 130.502,186.725 130.980 C 189.054 131.722,196.884 131.210,197.949 130.246 C 198.709 129.558,198.859 129.547,199.718 130.110 C 200.937 130.908,204.481 131.356,209.060 131.289 C 212.652 131.237,212.744 131.260,214.042 132.500 C 215.214 133.620,215.657 133.774,217.948 133.857 C 220.409 133.946,220.555 134.007,221.041 135.161 C 221.344 135.882,221.924 136.449,222.475 136.561 C 222.984 136.665,223.883 136.852,224.473 136.976 C 225.064 137.100,225.661 137.561,225.800 138.000 C 225.939 138.439,226.493 138.909,227.031 139.044 C 227.569 139.179,228.388 139.821,228.851 140.472 C 229.315 141.123,230.140 141.825,230.686 142.033 C 231.231 142.240,231.769 142.762,231.882 143.192 C 231.994 143.622,232.437 144.085,232.866 144.221 C 233.295 144.357,233.812 144.905,234.015 145.439 C 234.218 145.973,234.795 146.597,235.297 146.826 C 235.799 147.054,236.516 147.775,236.890 148.428 C 237.264 149.080,237.892 149.733,238.285 149.878 C 239.291 150.249,239.587 150.802,239.594 152.323 C 239.598 153.275,239.934 153.950,240.792 154.734 C 241.448 155.333,242.101 156.406,242.244 157.119 C 242.386 157.832,243.020 158.851,243.652 159.382 C 244.726 160.286,244.800 160.539,244.800 163.320 C 244.800 166.661,245.791 168.653,247.262 168.268 C 247.675 168.160,248.281 168.338,248.607 168.664 C 249.131 169.188,249.200 169.124,249.200 168.114 C 249.200 167.112,249.040 166.958,247.907 166.872 C 247.195 166.817,246.430 166.590,246.207 166.366 C 245.630 165.789,245.699 159.444,246.290 158.733 C 246.690 158.250,246.570 158.170,245.547 158.241 C 244.160 158.337,242.800 157.239,242.800 156.024 C 242.800 155.597,242.617 155.134,242.393 154.996 C 242.170 154.858,242.091 154.577,242.217 154.372 C 242.344 154.168,242.085 154.000,241.642 154.000 C 241.023 154.000,240.778 153.653,240.583 152.500 C 240.180 150.112,239.979 149.600,239.443 149.600 C 238.872 149.600,237.201 147.944,237.197 147.374 C 237.196 147.168,236.656 146.693,235.997 146.319 C 235.332 145.940,234.800 145.302,234.800 144.883 C 234.800 144.466,234.352 143.924,233.800 143.673 C 233.250 143.422,232.800 142.943,232.800 142.609 C 232.800 142.274,232.609 142.000,232.376 142.000 C 232.143 142.000,232.050 141.842,232.170 141.649 C 232.289 141.455,231.864 141.193,231.226 141.065 C 230.585 140.937,229.958 140.499,229.828 140.089 C 229.698 139.679,228.960 139.043,228.189 138.675 C 227.417 138.307,226.580 137.555,226.329 137.003 C 225.958 136.191,225.585 136.000,224.364 136.000 C 222.791 136.000,221.828 135.350,221.399 133.998 C 221.116 133.106,221.158 133.119,218.420 133.050 C 215.862 132.985,214.110 130.642,215.771 129.506 C 216.054 129.312,216.020 129.210,215.671 129.206 C 215.381 129.203,214.895 129.448,214.592 129.751 C 213.747 130.596,209.246 130.920,205.721 130.390 C 200.928 129.670,200.851 129.647,200.830 128.899 C 200.773 126.865,200.714 126.800,198.933 126.800 C 197.844 126.800,197.179 126.986,197.143 127.300 M272.323 132.700 C 269.759 135.685,271.522 136.800,278.805 136.800 C 284.267 136.800,285.948 137.090,284.756 137.827 C 284.504 137.983,281.632 138.224,278.374 138.363 C 275.116 138.502,272.327 138.740,272.175 138.891 C 271.677 139.390,271.888 141.260,272.514 141.886 C 273.067 142.438,273.122 142.364,273.064 141.150 L 273.000 139.800 277.800 139.555 C 284.038 139.237,285.472 138.933,285.749 137.874 C 286.187 136.197,285.475 136.000,278.965 136.000 C 272.017 136.000,271.561 135.806,272.617 133.294 C 273.236 131.822,273.178 131.705,272.323 132.700 M189.462 141.531 C 189.098 141.934,188.800 142.569,188.800 142.944 C 188.800 143.862,187.762 144.202,186.590 143.668 C 185.367 143.111,183.328 143.759,182.187 145.068 C 181.737 145.584,180.923 146.000,180.363 146.000 C 179.382 146.000,177.600 147.275,177.600 147.976 C 177.600 148.166,177.071 148.506,176.424 148.732 C 175.197 149.160,172.655 152.242,173.030 152.848 C 173.148 153.040,172.740 153.420,172.123 153.694 C 170.782 154.287,170.000 154.982,170.000 155.580 C 170.000 155.820,169.570 156.213,169.044 156.453 C 168.096 156.885,167.200 158.317,167.200 159.401 C 167.200 159.710,166.705 160.458,166.101 161.063 C 165.026 162.138,164.612 164.597,165.208 166.375 C 165.328 166.734,164.902 167.193,164.071 167.599 C 162.098 168.562,162.001 168.914,162.035 174.933 C 162.074 181.872,162.208 182.083,166.502 181.958 C 169.746 181.863,171.163 180.955,171.245 178.918 C 171.388 175.413,171.331 172.764,171.074 170.945 C 170.799 168.992,170.833 168.879,171.764 168.645 C 173.362 168.244,174.000 167.304,174.000 165.351 C 174.000 163.729,174.111 163.520,175.171 163.150 C 175.902 162.895,176.491 162.314,176.739 161.602 C 176.958 160.975,177.511 160.262,177.968 160.017 C 178.426 159.772,178.800 159.315,178.800 159.000 C 178.800 158.685,179.186 158.222,179.657 157.969 C 180.129 157.717,181.008 157.036,181.612 156.455 C 182.215 155.875,183.180 155.077,183.755 154.681 C 184.330 154.286,184.800 153.701,184.800 153.381 C 184.800 153.062,185.025 152.782,185.300 152.760 C 185.575 152.738,186.340 152.684,187.000 152.639 C 188.855 152.514,189.522 152.048,190.023 150.529 C 190.418 149.334,190.611 149.174,191.343 149.436 C 193.778 150.307,201.157 150.079,202.134 149.103 C 203.360 147.877,203.679 142.536,202.591 141.448 C 201.565 140.423,190.402 140.493,189.462 141.531 M202.057 142.386 C 202.835 143.329,202.712 145.837,201.801 147.597 C 201.037 149.076,199.074 149.408,193.358 149.025 C 189.026 148.735,188.917 148.772,189.140 150.462 C 189.214 151.023,188.089 151.567,186.192 151.885 C 184.692 152.136,184.171 152.408,184.057 152.999 C 183.881 153.911,182.874 154.769,181.958 154.787 C 181.606 154.794,180.831 155.250,180.238 155.800 C 179.644 156.350,178.898 156.800,178.579 156.800 C 178.261 156.800,178.000 157.070,178.000 157.400 C 178.000 157.730,177.634 158.366,177.188 158.813 C 176.741 159.259,176.270 160.149,176.142 160.788 C 175.982 161.589,175.504 162.144,174.608 162.570 C 173.479 163.105,173.278 163.432,173.098 165.029 C 172.866 167.086,172.559 167.538,171.217 167.797 C 169.873 168.056,169.841 168.159,170.343 170.657 C 171.473 176.284,170.634 180.075,168.103 180.778 C 163.499 182.057,162.798 181.328,162.805 175.271 C 162.812 169.444,162.954 168.889,164.547 168.466 C 165.784 168.137,165.798 168.104,165.679 165.880 C 165.519 162.923,166.027 162.000,167.814 162.000 C 169.199 162.000,169.508 161.696,168.852 160.980 C 167.486 159.490,170.688 154.400,172.991 154.400 C 173.295 154.400,173.957 153.574,174.461 152.564 C 174.965 151.554,175.923 150.348,176.589 149.884 C 177.255 149.420,177.939 148.815,178.109 148.540 C 179.173 146.816,181.759 146.105,182.255 147.400 C 182.664 148.465,183.200 148.038,183.200 146.646 C 183.200 144.591,184.679 143.750,187.102 144.428 C 189.054 144.975,190.000 144.425,190.000 142.742 C 190.000 142.238,190.429 141.965,191.500 141.785 C 192.325 141.647,193.146 141.501,193.324 141.459 C 195.231 141.016,201.475 141.679,202.057 142.386 M211.527 143.558 C 210.361 143.946,207.600 147.160,207.600 148.129 C 207.600 149.349,210.957 152.800,212.144 152.800 C 212.591 152.800,213.450 153.273,214.054 153.852 C 217.260 156.923,223.891 154.824,221.257 151.571 C 220.532 150.676,220.533 150.621,221.265 149.380 C 222.378 147.494,221.345 146.280,218.674 146.333 C 217.119 146.364,216.800 146.248,216.800 145.647 C 216.800 144.182,213.535 142.888,211.527 143.558 M215.300 144.736 C 215.685 145.059,216.000 145.653,216.000 146.054 C 216.000 146.769,216.645 147.057,218.800 147.305 C 220.463 147.497,220.779 147.879,220.390 149.233 C 220.133 150.130,220.217 150.828,220.704 151.850 C 221.540 153.601,221.049 154.548,219.212 154.729 C 217.455 154.902,215.612 154.084,215.176 152.938 C 214.889 152.182,214.526 152.000,213.304 152.000 C 211.783 152.000,208.400 149.273,208.400 148.047 C 208.400 145.698,213.521 143.240,215.300 144.736 M195.700 145.487 C 196.305 145.578,197.295 145.578,197.900 145.487 C 198.505 145.395,198.010 145.320,196.800 145.320 C 195.590 145.320,195.095 145.395,195.700 145.487 M248.226 171.788 C 247.217 174.428,247.446 183.636,248.547 184.687 C 249.266 185.374,249.278 185.370,248.886 184.599 C 248.105 183.065,247.906 176.022,248.560 173.016 C 249.278 169.711,249.170 169.315,248.226 171.788 M248.800 187.315 C 248.800 188.062,248.562 188.246,247.500 188.319 C 244.887 188.499,243.692 192.883,245.596 195.305 C 246.479 196.426,246.127 196.800,244.190 196.800 C 242.952 196.800,242.000 198.211,242.000 200.046 C 242.000 201.259,241.835 201.555,241.045 201.753 C 240.408 201.913,239.877 202.525,239.450 203.591 C 239.099 204.470,238.448 205.552,238.005 205.995 C 237.562 206.438,237.178 207.070,237.150 207.400 C 237.123 207.730,237.055 208.180,237.000 208.400 C 236.945 208.620,236.878 208.968,236.850 209.173 C 236.822 209.378,236.403 209.672,235.919 209.826 C 234.883 210.154,234.000 210.962,234.000 211.580 C 234.000 211.820,233.567 212.214,233.038 212.456 C 232.508 212.697,231.750 213.498,231.353 214.235 C 230.754 215.347,230.332 215.621,228.884 215.838 C 227.577 216.034,227.028 216.339,226.704 217.050 C 226.435 217.640,225.931 218.000,225.371 218.000 C 224.849 218.000,224.017 218.540,223.388 219.287 C 222.542 220.292,221.903 220.620,220.467 220.787 C 218.610 221.002,218.104 221.494,217.414 223.754 C 217.202 224.446,217.125 224.456,216.484 223.876 C 216.100 223.528,215.429 223.310,214.993 223.391 C 214.557 223.472,213.525 223.553,212.700 223.569 C 210.308 223.618,207.850 227.867,210.214 227.867 C 210.664 227.867,210.779 227.562,210.646 226.719 C 210.325 224.684,213.390 223.217,215.547 224.372 C 217.491 225.412,218.650 225.262,218.561 223.981 C 218.438 222.192,219.371 221.475,221.423 221.782 C 223.076 222.030,223.135 222.000,223.858 220.518 C 224.523 219.158,224.777 218.987,226.300 218.877 C 227.638 218.780,228.000 218.598,228.000 218.020 C 228.000 217.220,228.751 216.800,230.184 216.800 C 231.208 216.800,231.840 216.196,232.061 215.005 C 232.143 214.568,232.778 213.848,233.473 213.405 C 234.168 212.962,234.825 212.283,234.932 211.895 C 235.040 211.507,235.750 210.929,236.511 210.612 C 237.563 210.172,237.955 209.726,238.151 208.743 C 238.293 208.033,238.669 207.166,238.986 206.816 C 239.303 206.466,239.796 205.481,240.081 204.629 C 240.585 203.123,241.014 202.703,242.525 202.232 C 243.138 202.041,243.209 201.733,242.985 200.239 C 242.689 198.264,243.208 197.704,245.497 197.529 C 246.802 197.430,246.892 196.993,246.021 195.000 C 244.806 192.220,245.869 189.200,248.062 189.200 C 249.096 189.200,249.200 189.072,249.200 187.800 C 249.200 187.030,249.110 186.400,249.000 186.400 C 248.890 186.400,248.800 186.812,248.800 187.315 M194.004 226.618 C 191.360 227.358,190.413 228.080,192.868 227.484 C 194.880 226.995,202.664 226.868,205.000 227.286 L 206.600 227.573 205.200 226.932 C 203.189 226.011,196.809 225.832,194.004 226.618 M137.954 240.200 C 137.928 240.420,137.883 240.843,137.854 241.139 C 137.790 241.776,134.582 242.949,133.647 242.678 C 133.291 242.575,132.655 242.350,132.234 242.177 C 131.722 241.968,131.557 242.007,131.737 242.298 C 132.286 243.186,131.263 244.717,129.800 245.200 C 128.876 245.505,128.213 246.041,127.970 246.678 C 127.761 247.228,127.239 247.769,126.809 247.882 C 126.380 247.994,125.668 248.697,125.228 249.443 C 124.787 250.189,124.104 250.800,123.708 250.800 C 123.313 250.800,122.812 251.190,122.595 251.667 C 122.378 252.144,121.885 252.684,121.500 252.867 C 119.190 253.965,119.185 253.976,119.792 256.635 C 120.246 258.623,116.606 260.538,115.865 258.700 C 115.740 258.390,115.651 258.455,115.632 258.871 C 115.614 259.240,115.375 259.619,115.100 259.713 C 114.825 259.808,114.916 259.838,115.303 259.779 C 116.877 259.542,117.793 263.187,116.810 265.774 C 116.480 266.641,116.170 266.800,114.810 266.800 L 113.200 266.800 113.254 268.900 C 113.284 270.055,113.383 270.550,113.474 270.000 C 113.789 268.092,113.994 267.746,114.415 268.411 C 114.707 268.872,114.789 268.882,114.794 268.457 C 114.798 268.131,115.049 268.010,115.423 268.153 C 116.763 268.668,118.000 266.522,118.000 263.682 C 118.000 261.222,118.078 261.005,119.437 259.685 C 120.667 258.490,120.838 258.110,120.625 257.045 C 120.114 254.500,120.162 254.205,121.110 254.071 C 121.610 254.000,122.420 253.397,122.910 252.732 C 123.399 252.066,124.295 251.265,124.900 250.951 C 125.505 250.637,126.000 250.108,126.000 249.777 C 126.000 249.446,126.315 249.063,126.700 248.927 C 127.821 248.529,128.800 247.532,128.800 246.789 C 128.800 246.303,129.245 246.031,130.323 245.859 C 131.192 245.720,132.251 245.185,132.787 244.614 C 133.305 244.063,134.374 243.508,135.164 243.381 C 137.344 243.029,138.370 242.504,138.825 241.506 L 139.237 240.600 198.701 240.687 L 258.164 240.774 258.659 241.718 C 259.028 242.423,259.742 242.792,261.477 243.173 C 262.755 243.453,264.188 244.040,264.662 244.476 C 265.136 244.912,266.216 245.505,267.062 245.794 C 268.135 246.161,268.641 246.589,268.734 247.208 C 268.816 247.747,269.314 248.263,270.005 248.524 C 270.630 248.760,271.332 249.371,271.565 249.883 C 271.798 250.394,272.421 251.009,272.950 251.250 C 273.479 251.491,274.153 252.139,274.448 252.689 C 274.742 253.239,275.392 253.845,275.892 254.035 C 276.605 254.306,276.800 254.691,276.800 255.830 C 276.800 256.930,277.094 257.554,278.023 258.422 C 278.696 259.050,279.330 260.067,279.431 260.682 C 279.924 263.660,280.068 263.941,281.428 264.586 C 282.527 265.108,282.734 265.378,282.448 265.920 C 282.250 266.294,282.059 268.748,282.022 271.374 C 281.986 274.000,281.865 276.295,281.754 276.474 C 281.643 276.653,244.316 276.800,198.805 276.800 C 108.190 276.800,114.874 276.977,114.750 274.571 C 114.691 273.420,114.659 273.296,114.090 272.000 C 113.515 270.691,113.505 271.188,114.043 274.276 C 114.372 276.168,114.704 276.943,115.343 277.309 C 116.764 278.123,281.366 278.016,282.143 277.200 C 282.572 276.750,282.760 275.017,282.894 270.257 L 283.072 263.914 281.945 263.521 C 280.813 263.126,280.008 261.396,280.002 259.346 C 280.001 258.876,279.574 258.213,279.054 257.872 C 278.477 257.494,277.936 256.567,277.666 255.496 C 277.350 254.243,276.932 253.606,276.206 253.275 C 275.646 253.020,274.982 252.359,274.730 251.806 C 274.478 251.253,274.040 250.800,273.756 250.800 C 273.473 250.800,272.760 250.170,272.173 249.400 C 271.586 248.630,270.887 248.000,270.620 248.000 C 270.353 248.000,269.881 247.524,269.570 246.943 C 269.258 246.362,268.328 245.460,267.502 244.938 C 266.502 244.307,265.998 243.691,265.994 243.095 C 265.985 241.827,265.388 240.932,265.083 241.729 C 264.440 243.403,260.000 242.479,260.000 240.671 L 260.000 239.800 199.000 239.800 C 158.631 239.800,137.984 239.935,137.954 240.200 " stroke="none" fill="#848484" fill-rule="evenodd"></path><path id="path3" d="M266.498 122.462 C 266.150 122.810,265.998 124.594,265.994 128.380 C 265.986 135.388,266.446 134.906,259.439 135.251 C 252.812 135.576,252.800 135.580,252.800 137.391 C 252.800 139.278,253.158 140.000,254.093 140.000 C 254.788 140.000,254.865 140.180,254.651 141.300 C 254.506 142.051,254.542 142.381,254.736 142.081 C 255.003 141.666,255.174 141.686,255.584 142.181 C 256.202 142.926,262.636 143.091,262.877 142.369 C 262.956 142.132,263.646 141.907,264.410 141.869 L 265.800 141.800 265.910 148.371 C 266.027 155.340,266.268 156.313,267.690 155.552 C 268.285 155.234,268.423 155.240,268.216 155.575 C 268.023 155.887,268.375 156.000,269.342 155.935 C 270.596 155.850,271.924 154.400,270.747 154.400 C 270.539 154.400,270.600 154.153,270.882 153.850 C 271.165 153.548,271.577 153.366,271.798 153.446 C 272.019 153.526,272.465 153.423,272.788 153.218 C 273.946 152.482,272.730 152.249,270.089 152.702 C 266.590 153.301,266.662 153.421,266.412 146.612 C 266.152 139.531,266.497 139.922,260.179 139.553 C 255.054 139.254,253.200 138.684,253.200 137.405 C 253.200 136.317,254.755 136.000,260.094 136.000 C 266.799 136.000,266.398 136.418,266.406 129.420 C 266.414 122.603,266.267 122.867,270.097 122.765 C 271.790 122.721,273.097 122.556,273.000 122.401 C 272.678 121.878,267.029 121.931,266.498 122.462 M192.400 127.224 C 192.400 127.457,192.221 127.536,192.001 127.401 C 191.742 127.241,191.746 127.532,192.012 128.233 C 192.598 129.773,192.471 129.809,186.763 129.716 C 181.410 129.628,181.300 129.661,181.550 131.292 C 181.654 131.969,179.591 132.837,178.152 132.722 C 176.804 132.614,176.566 132.736,176.054 133.800 C 175.282 135.404,174.970 135.556,173.259 135.158 C 170.935 134.618,170.525 134.702,170.612 135.700 C 170.732 137.080,170.149 137.870,168.814 138.137 C 167.972 138.306,167.600 138.613,167.600 139.141 C 167.600 140.016,166.942 140.650,165.818 140.859 C 165.387 140.939,164.933 141.436,164.808 141.964 C 164.586 142.907,164.091 143.329,162.700 143.759 C 162.315 143.878,162.000 144.356,162.000 144.822 C 162.000 145.393,161.615 145.815,160.824 146.114 C 160.093 146.389,159.550 146.943,159.392 147.575 C 159.092 148.768,158.547 149.185,157.276 149.194 C 156.768 149.197,156.456 149.368,156.583 149.572 C 156.709 149.777,156.630 150.058,156.405 150.197 C 156.131 150.366,156.129 150.694,156.399 151.198 C 157.432 153.128,156.636 154.738,154.700 154.633 C 154.041 154.597,153.600 154.779,153.600 155.087 C 153.600 157.246,156.995 155.135,157.406 152.720 C 157.529 151.994,157.867 151.219,158.157 150.999 C 158.446 150.778,159.084 149.812,159.573 148.853 C 160.062 147.894,160.794 147.022,161.199 146.916 C 161.603 146.810,162.133 146.246,162.376 145.662 C 162.618 145.078,163.370 144.283,164.047 143.897 C 164.723 143.510,165.367 142.849,165.476 142.429 C 165.586 142.009,166.201 141.448,166.843 141.182 C 167.510 140.906,168.112 140.291,168.248 139.749 C 168.380 139.227,168.602 138.786,168.743 138.769 C 170.208 138.595,172.572 137.639,172.275 137.341 C 171.825 136.892,173.147 136.000,174.271 135.994 C 175.671 135.986,176.337 135.579,176.944 134.362 C 177.303 133.642,177.797 133.388,179.008 133.303 C 181.501 133.127,182.737 132.475,182.877 131.261 C 182.992 130.271,183.120 130.207,184.800 130.301 C 188.978 130.536,191.169 130.503,194.000 130.162 L 197.000 129.800 197.042 128.300 L 197.085 126.800 194.742 126.800 C 193.360 126.800,192.400 126.974,192.400 127.224 M200.650 127.119 C 200.542 127.295,200.604 127.683,200.789 127.983 C 200.975 128.282,201.036 128.761,200.927 129.047 C 200.707 129.618,200.961 129.688,205.835 130.401 C 207.704 130.674,210.067 130.753,211.435 130.588 C 214.884 130.171,215.244 129.749,211.993 129.932 C 207.605 130.180,205.479 129.747,205.689 128.648 C 205.979 127.132,201.485 125.768,200.650 127.119 M215.401 130.814 C 215.550 132.558,216.135 132.992,218.420 133.050 C 221.158 133.119,221.116 133.106,221.399 133.998 C 221.828 135.350,222.791 136.000,224.364 136.000 C 225.585 136.000,225.958 136.191,226.329 137.003 C 226.580 137.555,227.417 138.307,228.189 138.675 C 228.960 139.043,229.698 139.679,229.828 140.089 C 229.958 140.499,230.585 140.937,231.226 141.065 C 231.864 141.193,232.289 141.455,232.170 141.649 C 232.050 141.842,232.143 142.000,232.376 142.000 C 232.609 142.000,232.800 142.274,232.800 142.609 C 232.800 142.943,233.250 143.422,233.800 143.673 C 234.352 143.924,234.800 144.466,234.800 144.883 C 234.800 145.302,235.332 145.940,235.997 146.319 C 236.656 146.693,237.196 147.194,237.197 147.430 C 237.201 147.984,238.914 149.600,239.499 149.600 C 239.980 149.600,240.188 150.155,240.583 152.500 C 240.778 153.653,241.023 154.000,241.642 154.000 C 242.085 154.000,242.344 154.168,242.217 154.372 C 242.091 154.577,242.170 154.858,242.393 154.996 C 242.617 155.134,242.800 155.597,242.800 156.024 C 242.800 157.145,244.112 158.289,245.343 158.241 C 246.750 158.187,246.726 157.437,245.312 157.265 C 243.331 157.023,242.394 154.966,243.680 153.680 C 244.053 153.307,244.040 153.089,243.621 152.700 C 243.184 152.294,243.142 152.312,243.400 152.800 C 243.658 153.288,243.616 153.306,243.179 152.900 C 242.882 152.625,242.319 152.400,241.926 152.400 C 241.413 152.400,241.084 151.892,240.758 150.600 C 240.436 149.321,240.101 148.800,239.601 148.800 C 238.713 148.800,238.116 148.082,237.938 146.800 C 237.844 146.121,237.511 145.759,236.900 145.672 C 236.405 145.602,236.000 145.270,236.000 144.934 C 236.000 144.598,235.664 143.846,235.254 143.262 C 234.843 142.678,234.572 141.795,234.651 141.301 C 234.730 140.806,234.661 140.423,234.497 140.448 C 234.334 140.474,234.020 140.455,233.800 140.407 C 233.580 140.358,232.831 140.350,232.135 140.387 C 231.108 140.442,230.769 140.243,230.332 139.328 C 229.964 138.555,229.439 138.159,228.666 138.070 C 227.838 137.975,227.430 137.633,227.134 136.782 C 226.738 135.647,226.320 135.452,223.400 135.041 C 222.870 134.966,222.557 134.570,222.474 133.865 C 222.336 132.705,221.809 132.482,218.802 132.305 C 217.149 132.209,216.987 132.103,216.799 131.005 C 216.506 129.300,215.258 129.129,215.401 130.814 M272.484 133.530 C 271.687 135.818,272.163 136.000,278.940 136.000 C 283.151 136.000,285.189 136.149,285.520 136.480 C 285.787 136.747,286.000 136.782,286.000 136.560 C 286.000 135.409,284.903 135.200,278.875 135.200 L 272.711 135.200 272.974 133.800 C 273.290 132.114,273.028 131.970,272.484 133.530 M285.600 138.096 C 285.600 138.894,281.611 139.600,277.100 139.600 C 272.941 139.600,272.598 139.769,273.002 141.610 L 273.264 142.800 277.449 142.800 C 281.894 142.800,283.640 142.123,283.064 140.622 C 282.890 140.169,283.093 139.986,283.813 139.950 C 284.356 139.922,285.004 139.878,285.254 139.850 C 285.870 139.782,286.468 138.089,285.982 137.789 C 285.772 137.659,285.600 137.797,285.600 138.096 M193.324 141.459 C 193.146 141.501,192.325 141.647,191.500 141.785 C 190.429 141.965,190.000 142.238,190.000 142.742 C 190.000 144.425,189.054 144.975,187.102 144.428 C 184.667 143.747,183.200 144.589,183.200 146.670 C 183.200 148.322,183.846 148.099,184.324 146.280 C 184.658 145.011,184.682 145.000,187.231 144.981 C 190.729 144.956,190.800 144.933,190.800 143.831 C 190.800 141.997,200.525 141.088,201.621 142.820 C 202.499 144.208,201.984 146.443,200.675 146.926 C 200.276 147.074,200.048 147.355,200.170 147.551 C 200.743 148.479,197.939 148.893,193.001 148.608 L 188.000 148.319 188.000 149.542 C 188.000 150.644,187.853 150.788,186.500 151.007 C 184.181 151.384,183.200 151.907,183.200 152.768 C 183.200 153.793,182.916 153.936,180.661 154.053 C 179.078 154.135,177.517 154.931,177.900 155.461 C 178.258 155.958,177.836 156.499,176.812 156.856 C 175.622 157.271,175.444 157.681,175.108 160.800 C 175.027 161.549,174.735 161.831,173.942 161.923 C 173.019 162.029,172.849 162.278,172.610 163.874 C 172.213 166.518,172.038 166.800,170.790 166.800 L 169.666 166.800 169.877 171.799 C 170.073 176.455,169.859 179.193,169.341 178.674 C 169.220 178.553,168.589 178.997,167.940 179.662 C 167.222 180.396,166.519 180.778,166.147 180.635 C 165.810 180.506,165.211 180.400,164.816 180.400 C 164.022 180.400,163.312 178.297,163.396 176.200 C 163.422 175.540,163.482 174.010,163.528 172.800 C 163.628 170.200,163.982 169.513,165.256 169.445 C 166.153 169.397,166.200 169.256,166.200 166.597 C 166.200 163.302,166.505 162.666,167.981 162.882 C 168.688 162.986,169.067 162.860,169.067 162.521 C 169.067 162.198,168.564 162.000,167.747 162.000 C 166.033 162.000,165.521 162.960,165.679 165.880 C 165.798 168.104,165.784 168.137,164.547 168.466 C 162.954 168.889,162.812 169.444,162.805 175.271 C 162.798 181.328,163.499 182.057,168.103 180.778 C 170.634 180.075,171.473 176.284,170.343 170.657 C 169.841 168.159,169.873 168.056,171.217 167.797 C 172.559 167.538,172.866 167.086,173.098 165.029 C 173.278 163.432,173.479 163.105,174.608 162.570 C 175.504 162.144,175.982 161.589,176.142 160.788 C 176.270 160.149,176.741 159.259,177.188 158.813 C 177.634 158.366,178.000 157.730,178.000 157.400 C 178.000 157.070,178.261 156.800,178.579 156.800 C 178.898 156.800,179.644 156.350,180.238 155.800 C 180.831 155.250,181.606 154.794,181.958 154.787 C 182.874 154.769,183.881 153.911,184.057 152.999 C 184.171 152.408,184.692 152.136,186.192 151.885 C 188.089 151.567,189.214 151.023,189.140 150.462 C 188.917 148.772,189.026 148.735,193.358 149.025 C 200.800 149.524,202.158 148.901,202.556 144.814 C 202.822 142.078,202.110 141.607,197.524 141.486 C 195.392 141.430,193.502 141.418,193.324 141.459 M210.100 145.824 C 208.005 148.001,208.005 148.096,210.094 150.252 C 211.508 151.710,212.039 152.000,213.304 152.000 C 214.526 152.000,214.889 152.182,215.176 152.938 C 215.612 154.084,217.455 154.902,219.212 154.729 C 220.851 154.567,221.521 153.623,220.910 152.334 C 220.481 151.429,220.469 151.438,220.533 152.600 C 220.646 154.636,217.084 154.654,216.235 152.621 C 215.696 151.331,215.494 151.200,214.053 151.200 C 211.944 151.200,211.200 150.873,211.200 149.947 C 211.200 149.497,210.787 149.023,210.200 148.800 C 209.094 148.380,208.848 147.600,209.820 147.600 C 210.162 147.600,210.704 146.970,211.026 146.200 C 211.535 144.981,211.790 144.800,213.000 144.800 C 214.210 144.800,214.465 144.981,214.974 146.200 C 215.444 147.324,215.780 147.601,216.680 147.606 C 218.202 147.614,218.780 148.053,218.882 149.278 C 218.929 149.847,219.308 150.525,219.725 150.786 C 220.142 151.046,220.380 151.091,220.253 150.886 C 220.127 150.682,220.185 149.951,220.382 149.262 C 220.780 147.876,220.473 147.498,218.800 147.305 C 216.645 147.057,216.000 146.769,216.000 146.054 C 216.000 143.556,212.417 143.416,210.100 145.824 M179.037 147.420 C 178.697 147.761,178.279 148.265,178.109 148.540 C 177.939 148.815,177.255 149.420,176.589 149.884 C 175.923 150.348,174.965 151.554,174.461 152.564 C 173.957 153.574,173.295 154.400,172.991 154.400 C 171.746 154.400,168.009 158.493,168.263 159.577 C 168.650 161.227,169.000 161.276,169.000 159.681 C 169.000 158.483,169.160 158.177,169.836 158.081 C 170.329 158.010,170.904 157.435,171.236 156.681 C 171.645 155.753,172.130 155.344,173.000 155.197 C 173.871 155.050,174.236 154.743,174.331 154.076 C 174.406 153.545,174.871 153.001,175.431 152.788 C 176.100 152.534,176.400 152.110,176.400 151.418 C 176.400 150.678,176.666 150.348,177.414 150.161 C 177.972 150.021,178.696 149.387,179.024 148.753 C 179.511 147.812,179.881 147.600,181.034 147.600 C 181.874 147.600,182.347 147.438,182.200 147.200 C 181.818 146.582,179.730 146.727,179.037 147.420 M153.805 157.471 C 154.078 159.343,153.737 159.901,152.193 160.108 C 150.893 160.282,150.832 160.693,151.240 166.600 C 151.439 169.483,151.005 170.735,149.694 171.055 C 149.092 171.203,148.468 171.520,148.306 171.762 C 147.824 172.481,147.935 177.287,148.427 176.983 C 148.662 176.838,148.761 176.475,148.646 176.177 C 148.485 175.755,148.653 175.716,149.405 176.002 C 150.617 176.463,150.872 176.088,151.310 173.200 C 152.019 168.520,152.071 166.963,151.584 164.932 C 151.031 162.628,151.408 161.600,152.806 161.600 C 153.709 161.600,154.799 158.973,154.514 157.482 C 154.184 155.760,153.553 155.750,153.805 157.471 M245.707 162.600 C 245.665 165.694,246.028 166.532,247.544 166.842 C 248.504 167.038,248.919 166.956,249.079 166.538 C 249.370 165.780,249.040 165.500,247.857 165.500 C 246.701 165.500,246.081 164.466,245.878 162.200 C 245.753 160.803,245.731 160.854,245.707 162.600 M248.181 174.984 C 248.034 175.965,248.087 178.440,248.300 180.484 L 248.685 184.200 248.743 178.700 C 248.802 172.998,248.640 171.925,248.181 174.984 M148.054 180.400 C 148.135 184.148,148.257 184.473,149.524 184.322 C 150.863 184.162,151.328 185.825,151.135 190.082 C 151.042 192.148,151.128 193.032,151.398 192.763 C 152.137 192.024,151.669 180.603,150.845 179.275 C 150.710 179.058,150.240 178.817,149.800 178.740 C 149.360 178.663,148.773 178.330,148.495 178.000 C 148.080 177.508,148.001 177.938,148.054 180.400 M246.284 189.908 C 245.511 190.761,245.330 193.385,245.938 194.900 C 246.547 196.416,246.828 196.284,246.362 194.700 C 245.677 192.366,246.257 190.466,247.700 190.323 C 248.381 190.255,249.012 189.975,249.103 189.700 C 249.359 188.918,247.024 189.090,246.284 189.908 M150.806 194.300 C 150.824 195.157,151.562 195.666,152.400 195.400 C 153.623 195.012,153.986 195.712,153.994 198.468 C 154.000 200.653,154.044 200.746,155.180 200.996 C 156.280 201.237,156.368 201.395,156.480 203.327 C 156.593 205.286,156.672 205.421,157.911 205.786 C 158.887 206.073,159.301 206.478,159.533 207.373 C 159.743 208.184,160.162 208.650,160.822 208.806 C 161.676 209.009,161.801 209.264,161.811 210.819 C 161.833 214.231,162.147 214.554,165.300 214.408 C 166.566 214.350,166.800 214.466,166.800 215.155 C 166.800 216.037,167.878 216.800,169.124 216.800 C 169.652 216.800,169.971 217.154,170.122 217.910 C 170.304 218.822,170.661 219.104,172.130 219.497 C 173.112 219.759,173.906 220.205,173.895 220.487 C 173.819 222.356,173.921 222.438,175.980 222.165 C 177.917 221.908,177.966 221.927,178.214 223.051 C 178.628 224.929,178.753 225.200,179.213 225.200 C 180.671 225.200,179.328 222.566,177.400 221.646 C 176.300 221.121,175.176 220.372,174.902 219.981 C 174.628 219.591,173.686 219.150,172.808 219.001 C 171.618 218.800,171.081 218.461,170.702 217.669 C 170.422 217.085,169.710 216.376,169.120 216.093 C 168.530 215.810,167.932 215.216,167.791 214.773 C 167.639 214.292,167.052 213.870,166.337 213.727 C 165.593 213.579,165.006 213.142,164.792 212.578 C 164.601 212.078,164.076 211.551,163.623 211.407 C 163.110 211.244,162.800 210.803,162.800 210.235 C 162.800 209.304,161.689 208.000,160.895 208.000 C 160.653 208.000,160.328 207.603,160.174 207.119 C 159.793 205.918,159.102 205.291,157.802 204.965 C 156.772 204.706,156.720 204.588,156.939 202.994 C 157.180 201.233,156.717 200.447,155.100 199.873 C 154.557 199.681,154.400 199.167,154.400 197.586 C 154.400 194.803,153.904 194.000,152.186 194.000 C 151.424 194.000,150.803 194.135,150.806 194.300 M246.000 197.177 C 245.670 197.358,244.860 197.669,244.200 197.868 C 243.076 198.207,243.000 198.356,243.000 200.215 C 243.000 201.967,242.895 202.215,242.104 202.327 C 241.120 202.467,240.000 203.802,240.000 204.835 C 240.000 205.196,239.638 205.952,239.196 206.514 C 238.755 207.075,238.281 208.097,238.143 208.784 C 237.956 209.722,237.548 210.178,236.511 210.612 C 235.750 210.929,235.044 211.509,234.942 211.900 C 234.840 212.291,234.223 212.917,233.571 213.291 C 232.919 213.665,232.286 214.292,232.164 214.685 C 232.042 215.078,231.773 215.715,231.567 216.100 C 231.294 216.611,231.344 216.800,231.752 216.800 C 232.074 216.800,232.422 216.207,232.574 215.400 C 232.782 214.287,233.023 214.000,233.746 214.000 C 234.388 214.000,234.824 213.618,235.228 212.700 C 235.645 211.752,236.125 211.345,237.000 211.198 C 237.949 211.038,238.226 210.767,238.326 209.899 C 238.414 209.139,238.740 208.730,239.389 208.567 C 240.353 208.325,240.785 207.392,240.795 205.533 C 240.804 203.766,241.204 203.200,242.443 203.200 C 243.590 203.200,243.600 203.180,243.600 200.800 C 243.600 198.302,243.707 198.173,245.657 198.324 C 246.018 198.352,246.406 198.021,246.519 197.588 C 246.632 197.154,246.697 196.811,246.663 196.824 C 246.628 196.836,246.330 196.995,246.000 197.177 M228.500 217.065 C 228.225 217.176,228.000 217.601,228.000 218.010 C 228.000 218.599,227.646 218.780,226.300 218.877 C 224.777 218.987,224.523 219.158,223.858 220.518 C 223.141 221.987,223.063 222.029,221.458 221.807 C 220.546 221.681,219.564 221.735,219.275 221.928 C 218.614 222.369,218.192 224.800,218.776 224.800 C 219.190 224.800,219.354 224.277,219.237 223.330 C 219.142 222.559,220.081 222.200,222.191 222.200 C 223.864 222.200,224.206 222.072,224.334 221.400 C 224.629 219.848,225.200 219.567,227.659 219.762 L 230.000 219.947 230.000 218.607 C 230.000 217.870,230.225 217.176,230.500 217.065 C 230.775 216.954,230.550 216.863,230.000 216.863 C 229.450 216.863,228.775 216.954,228.500 217.065 M182.400 224.293 C 180.085 224.565,180.272 225.010,182.639 224.862 C 186.070 224.646,186.800 224.953,186.800 226.608 C 186.800 227.861,186.909 227.999,187.900 227.994 C 188.634 227.990,188.827 227.878,188.479 227.657 C 188.192 227.475,187.989 227.163,188.026 226.963 C 188.234 225.859,187.874 225.155,186.820 224.610 C 185.654 224.007,185.141 223.970,182.400 224.293 M211.216 224.871 C 210.804 225.255,210.528 225.891,210.603 226.285 C 210.677 226.678,210.753 227.225,210.769 227.500 C 210.851 228.831,211.857 227.882,211.830 226.500 L 211.800 225.000 214.000 224.796 C 215.644 224.644,215.986 224.515,215.352 224.286 C 214.047 223.814,212.047 224.097,211.216 224.871 M194.400 227.174 C 193.973 227.468,195.357 227.591,199.200 227.599 C 202.170 227.606,205.050 227.704,205.600 227.817 L 206.600 228.023 205.600 227.555 C 204.279 226.937,195.192 226.628,194.400 227.174 M136.605 239.193 C 136.490 239.377,136.358 239.995,136.311 240.565 C 136.203 241.866,135.393 242.132,132.596 241.782 L 130.400 241.508 130.400 242.964 C 130.400 244.270,130.273 244.445,129.169 244.666 C 128.374 244.825,127.809 245.250,127.576 245.863 C 127.377 246.386,126.772 246.983,126.231 247.188 C 125.264 247.556,124.443 248.616,124.517 249.400 C 124.538 249.620,124.026 249.892,123.381 250.003 C 122.454 250.164,122.164 250.458,122.002 251.403 C 121.829 252.409,121.589 252.620,120.498 252.725 C 119.784 252.794,119.200 253.005,119.200 253.193 C 119.200 253.381,119.088 253.864,118.951 254.267 C 118.765 254.814,118.872 254.772,119.373 254.100 C 119.743 253.605,120.367 253.200,120.761 253.200 C 121.545 253.200,122.800 252.011,122.800 251.269 C 122.800 251.011,123.166 250.800,123.613 250.800 C 124.114 250.800,124.735 250.278,125.228 249.443 C 125.668 248.697,126.380 247.994,126.809 247.882 C 127.239 247.769,127.761 247.228,127.970 246.678 C 128.213 246.041,128.876 245.505,129.800 245.200 C 131.263 244.717,132.286 243.186,131.737 242.298 C 131.557 242.007,131.722 241.968,132.234 242.177 C 132.655 242.350,133.291 242.575,133.647 242.678 C 134.582 242.949,137.790 241.776,137.854 241.139 C 137.883 240.843,137.928 240.420,137.954 240.200 C 137.984 239.935,158.631 239.800,199.000 239.800 L 260.000 239.800 260.000 240.671 C 260.000 241.805,262.146 242.919,263.682 242.582 C 265.308 242.225,265.371 241.741,263.766 241.928 C 262.374 242.091,261.145 241.467,261.242 240.647 C 261.434 239.022,261.199 238.700,259.998 238.940 C 258.737 239.193,142.541 239.250,138.906 239.001 C 137.754 238.922,136.719 239.008,136.605 239.193 M265.919 242.826 C 266.046 243.697,266.519 244.318,267.551 244.969 C 268.350 245.474,269.258 246.362,269.570 246.943 C 269.881 247.524,270.353 248.000,270.620 248.000 C 270.887 248.000,271.586 248.630,272.173 249.400 C 272.760 250.170,273.473 250.800,273.756 250.800 C 274.040 250.800,274.478 251.253,274.730 251.806 C 274.982 252.359,275.646 253.020,276.206 253.275 C 276.932 253.606,277.350 254.243,277.666 255.496 C 277.936 256.567,278.477 257.494,279.054 257.872 C 279.574 258.213,280.001 258.876,280.002 259.346 C 280.008 261.396,280.813 263.126,281.945 263.521 L 283.072 263.914 282.894 270.257 C 282.760 275.017,282.572 276.750,282.143 277.200 C 281.360 278.021,116.763 278.122,115.331 277.302 C 114.726 276.956,114.338 276.167,114.053 274.702 L 113.645 272.600 113.867 275.200 C 113.990 276.630,114.175 277.890,114.278 278.000 C 114.382 278.110,152.246 278.247,198.420 278.306 L 282.374 278.411 283.041 277.394 C 283.599 276.543,283.673 275.644,283.500 271.888 C 283.386 269.420,283.424 266.320,283.585 265.000 C 283.879 262.581,283.580 261.796,282.512 262.187 C 281.383 262.600,280.722 261.147,280.895 258.635 L 281.063 256.200 279.831 256.200 C 278.738 256.200,278.541 256.014,278.074 254.537 C 277.700 253.355,277.274 252.805,276.605 252.637 C 275.977 252.479,275.578 252.010,275.405 251.224 C 275.210 250.333,274.891 250.018,274.089 249.924 C 273.346 249.837,272.963 249.507,272.801 248.815 C 272.660 248.212,272.203 247.742,271.623 247.605 C 270.692 247.386,270.270 246.887,269.841 245.500 C 269.722 245.115,269.272 244.800,268.841 244.800 C 267.768 244.800,266.800 243.743,266.800 242.571 C 266.800 242.031,266.565 241.600,266.269 241.600 C 265.905 241.600,265.795 241.984,265.919 242.826 M119.144 256.600 C 119.004 258.154,118.958 258.199,117.567 258.149 C 116.591 258.114,116.133 258.274,116.133 258.649 C 116.133 259.422,118.580 259.363,119.371 258.571 C 120.054 257.889,120.128 257.050,119.616 255.800 C 119.353 255.157,119.260 255.315,119.144 256.600 M116.246 260.725 C 117.370 263.062,116.709 265.600,114.975 265.600 C 114.019 265.600,113.600 265.783,113.600 266.200 C 113.600 267.340,116.353 266.975,116.810 265.774 C 117.477 264.019,117.280 261.384,116.404 260.344 L 115.608 259.400 116.246 260.725 " stroke="none" fill="#7c7c7c" fill-rule="evenodd"></path><path id="path4" d="" stroke="none" fill="#90888c" fill-rule="evenodd"></path></g></svg>